<?xml version="1.0" encoding="utf-8"?>
<!-- Generator: Adobe Illustrator 14.0.0, SVG Export Plug-In . SVG Version: 6.00 Build 43363)  -->
<!DOCTYPE svg PUBLIC "-//W3C//DTD SVG 1.1//EN" "http://www.w3.org/Graphics/SVG/1.1/DTD/svg11.dtd">
<svg version="1.1" id="Layer_1" xmlns="http://www.w3.org/2000/svg" xmlns:xlink="http://www.w3.org/1999/xlink" x="0px" y="0px"
	 width="788.879px" height="305.734px" viewBox="0 0 788.879 305.734" enable-background="new 0 0 788.879 305.734"
	 xml:space="preserve">
<rect fill="#EF4A8D" width="788.879" height="305.734"/>
<path fill-rule="evenodd" clip-rule="evenodd" fill="#FFFFFF" d="M338.174,153.126c0-35.934-22.307-57.875-60.155-57.875
	c-38.03,0-60.155,21.941-60.155,57.875c0,35.934,22.125,57.876,60.155,57.876C315.867,211.002,338.174,189.06,338.174,153.126
	 M318.06,153.126c0,33.231-19.013,41.521-40.042,41.521c-21.21,0-40.224-8.29-40.224-41.521c0-33.069,19.196-41.523,40.224-41.523
	C299.047,111.603,318.06,120.057,318.06,153.126"/>
<path fill-rule="evenodd" clip-rule="evenodd" fill="#FFFFFF" d="M462.418,208.829v-98.369c0-12.956-9.271-12.906-19.359-12.906
	c0,51.33-0.019,111.275-0.019,111.275H462.418z"/>
<path fill-rule="evenodd" clip-rule="evenodd" fill="#FFFFFF" d="M574.79,199.337c-3.067,7.115-6.047,8.8-13.715,9.076h-9.837
	L599.51,97.112h25.601l48.09,111.302c0,0-8.856-0.032-9.025-0.032c-8.882,0.01-12.2-2.036-15.412-9.044l-36.085-87.183h-2.012
	L574.79,199.337z"/>
<path fill-rule="evenodd" clip-rule="evenodd" fill="#FFFFFF" d="M431.318,208.834l-36.123-83.604l-7.687-18.622
	c-3.567-8.152-5.663-9.024-11.15-9.068l-0.006-0.008h-5.556h-6.11l13.866,33.594l-33.577,77.708c0,0,8.856-0.031,9.026-0.031
	c8.881,0.006,12.2-2.037,15.412-9.045l18.733-45.391l18.734,45.391c3.212,7.008,6.53,9.051,15.411,9.045
	c0.038,0,0.541,0.003,1.276,0.003l0.031,0.028h6.104v-0.006C430.652,208.832,431.318,208.834,431.318,208.834z"/>
<path fill-rule="evenodd" clip-rule="evenodd" fill="#FFFFFF" d="M207.681,175.365c0-25.202-28.055-27.606-49.089-33.224
	c-9.972-2.729-20.49-6.421-20.49-17.173c0-13.481,15.305-16.104,28.592-16.104c5.374,0,11.845,1.298,17.835,2.159
	c10.497,2.401,13.743-11.169,13.743-11.169c-4.208-1.931-17.722-5.217-30.638-5.217c-27.502,0-48.175,9.629-48.175,31.293
	c0,26.803,26.021,29.531,48.542,35.31c9.965,2.567,20.302,6.097,20.302,16.688c0,11.971-11.82,17.049-27.279,17.049
	c-10.188,0-17.106-0.745-27.103-4.403c-11.753-4.296-18.284,10.151-18.284,10.151c10,6.241,25.117,10.107,41.138,10.107
	C198.344,210.833,207.681,189.488,207.681,175.365"/>
<path fill="#FFFFFF" d="M509.301,111.045h-22.068c-13.395,0-11.955-13.517-11.955-13.517l34.023,0.014l19.378-0.014h34.011
	c0,0,1.434,13.517-11.955,13.517h-22.068l0.013,97.783h-19.396L509.301,111.045z"/>
</svg>
